<svg xmlns="http://www.w3.org/2000/svg" height="24px" width="24px" fill="#ffffff">
  <path d="M12.8875 17.6375Q13.25 17.275 13.25 16.75t-0.3625-0.8875Q12.525 15.5 12 15.5t-0.8875 0.3625Q10.75 16.225 10.75 16.75t0.3625 0.8875Q11.475 18 12 18t0.8875-0.3625ZM11.1 14.15h1.85q0-0.9 0.2-1.325t0.85-1.075q0.875-0.875 1.2375-1.4625T15.6 8.95q0-1.325-0.9-2.1375T12.275 6q-1.375 0-2.3375 0.675T8.6 8.55l1.65 0.65q0.175-0.675 0.7-1.0875t1.225-0.4125q0.675 0 1.125 0.3625t0.45 0.9625q0 0.425-0.275 0.9t-0.925 1.05q-0.825 0.725-1.1375 1.3875T11.1 14.15ZM5 21q-0.825 0-1.4125-0.5875T3 19v-14q0-0.825 0.5875-1.4125T5 3h14q0.825 0 1.4125 0.5875T21 5v14q0 0.825-0.5875 1.4125T19 21H5Zm0-2h14v-14H5v14Zm0-14v14-14Z"/>
</svg>