<svg xmlns="http://www.w3.org/2000/svg" width="80" height="80" viewBox="0 -2 20 20"><path fill="#fff" d="M8.217.113A14.16 14.16 0 0 0 0 4.1l1.428 1.415A12.14 12.14 0 0 1 8.254 2.14 59 59 0 0 1 8.218.626zm.125 4.036A10.1 10.1 0 0 0 2.857 6.93l1.428 1.413a8.1 8.1 0 0 1 4.1-2.162v-.223a61 61 0 0 0-.02-1.13zm8.788 2.769-.006.03.019-.018zm-6.602 1.103a6 6 0 0 0-1.055.001 6.1 6.1 0 0 0-3.76 1.735l1.431 1.415a4.073 4.073 0 0 1 5.713 0l1.43-1.415a6.1 6.1 0 0 0-3.76-1.736M10 11.75c-1.01 0-2.02.75-2.02 2.25 0 1 .904 2 2.02 2s2.02-1 2.02-2c0-1.5-1.01-2.25-2.02-2.25"/><path d="m14.189.428 1.368 1.376-5.483 5.449-1.368-1.377Z" style="fill:#fff;fill-rule:evenodd;stroke-width:.25"/><path d="M8.719 1.783 10.096.415 15.544 5.9l-1.377 1.368z" style="fill:#fff;fill-rule:evenodd;stroke-width:.25"/></svg>
