<svg xmlns="http://www.w3.org/2000/svg" width="24" height="24" fill="#ffffff">
  <path d="m9.25 22-0.4-3.2q-0.325-0.125-0.6-0.3t-0.575-0.375l-2.975 1.25L1.95 14.625l2.575-1.95-0.025-0.325v-0.675l0.025-0.35-2.575-1.95 2.75-4.75 2.975 1.25 0.575-0.375 0.6-0.3 0.4-3.2h5.5l0.4 3.2q0.325 0.125 0.625 0.3t0.55 0.375l2.975-1.25 2.75 4.75-2.575 1.95 0.025 0.35v0.675l-0.05 0.325 2.575 1.95-2.75 4.75-2.95-1.25-0.575 0.375-0.6 0.3-0.4 3.2zm1.75-2h1.975l0.35-2.65q0.775-0.2 1.45-0.575t1.2-0.95l2.475 1.025 0.975-1.7-2.15-1.625q0.125-0.35 0.175-0.725t0.05-0.8-0.05-0.775-0.175-0.75l2.15-1.625-0.975-1.7-2.475 1.05q-0.55-0.575-1.2-0.95t-1.45-0.6l-0.325-2.65h-1.975l-0.35 2.65q-0.775 0.2-1.425 0.6t-1.225 0.925l-2.475-1.025-0.975 1.7 2.15 1.6q-0.125 0.375-0.175 0.75t-0.05 0.8q0 0.4 0.05 0.775t0.175 0.75l-2.15 1.625 0.975 1.7 2.475-1.05q0.55 0.575 1.225 0.975t1.425 0.575zm1.05-4.5q1.45 0 2.475-1.025t1.025-2.475-1.025-2.475-2.475-1.025q-1.475 0-2.475 1.025t-1.025 2.475 1.025 2.475 2.475 1.025m-0.05-3.5"/>
</svg>