<svg xmlns="http://www.w3.org/2000/svg" height="24px" width="24px" fill="#ffffff">
  <path d="m7.45 16.275-1.75-1.775q1.275-1.2 2.9-1.85t3.4-0.65q1.775 0 3.4 0.65t2.9 1.85l-1.75 1.775q-0.95-0.875-2.1125-1.325T12 14.5q-1.275 0-2.4375 0.45T7.45 16.275ZM1.825 10.6 0.05 8.825q2.425-2.35 5.5125-3.5875T12 4q3.35 0 6.4375 1.2375T23.95 8.825l-1.775 1.775q-2.05-1.975-4.675-3.0375T12 6.5q-2.875 0-5.5 1.0625T1.825 10.6Zm2.825 2.85-1.75-1.775q1.85-1.775 4.2-2.725t4.925-0.95q2.575 0 4.9125 0.9375T21.125 11.65l-1.75 1.775q-1.5-1.425-3.4125-2.175T12 10.5q-2.075 0-3.9625 0.7625T4.65 13.45Zm5.9375 5.9625Q10 18.825 10 18t0.5875-1.4125Q11.175 16 12 16t1.4125 0.5875Q14 17.175 14 18t-0.5875 1.4125Q12.825 20 12 20t-1.4125-0.5875Z"/>
</svg>
